<svg xmlns="http://www.w3.org/2000/svg" xmlns:xlink="http://www.w3.org/1999/xlink" width="17" height="22.746" viewBox="0 0 17 22.746"><defs><path id="a" d="M0 0h17v17H0z"/></defs><clipPath id="b"><use xlink:href="#a" overflow="visible"/></clipPath><path clip-path="url(#b)" fill="#1D1D1B" d="M3.94 16.236c.987.5 2.085.764 3.224.764 1.914 0 3.712-.745 5.064-2.098 1.354-1.354 2.1-3.152 2.1-5.066 0-1.67-.566-3.25-1.61-4.527l2.83-2.832.004 2.114L17 4.59 16.992.007 12.41 0l-.002 1.45 2.113.004-2.83 2.83c-1.274-1.044-2.857-1.61-4.526-1.61-1.14 0-2.237.263-3.225.762 0 0-.813.456-1.446.968-.136.117-.268.24-.396.368-2.793 2.793-2.793 7.337 0 10.13.128.128.26.25.396.367m1.447-.713c-.29-.2-.563-.426-.817-.68-2.228-2.23-2.228-5.853 0-8.08.254-.255.524-.48.814-.68h.004l.008-.005s1.002-.612 1.44-.71c.565-.184 1.163-.28 1.775-.28 1.526 0 2.96.596 4.04 1.675 1.08 1.08 1.674 2.514 1.674 4.04 0 1.527-.594 2.96-1.674 4.04-1.078 1.08-2.513 1.675-4.04 1.675-.612 0-1.21-.096-1.776-.28-.442-.124-1.446-.715-1.446-.715"/></svg>