<svg xmlns="http://www.w3.org/2000/svg" width="404.479" height="67" viewBox="0 0 404.479 67"><g fill="#E20613"><path d="M179.944 39.23c0 1.54 1.294 2.203 2.974 2.203 1.436 0 2.555-.63 3.29-1.608.77-1.015.978-2.31.978-3.71h-2.03c-2.098 0-5.212.35-5.212 3.115zM272.4 29.643c-3.045 0-4.516 2.66-4.516 5.353 0 2.975.944 6.23 4.515 6.23 3.603 0 4.547-3.22 4.547-6.23 0-2.764-1.47-5.353-4.548-5.353zM213.014 39.23c0 1.54 1.294 2.203 2.974 2.203 1.435 0 2.555-.63 3.29-1.608.77-1.015.978-2.31.978-3.71h-2.028c-2.1 0-5.214.35-5.214 3.115z"/><path d="M0 0v67h319.01l14.004-12.947V0H0zm171.892 44.443h-4.688v-10.74c0-1.68 0-4.06-2.694-4.06-3.113 0-3.498 3.708-3.498 6.052v8.748h-4.688v-10.74c0-1.68 0-4.06-2.694-4.06-3.113 0-3.5 3.708-3.5 6.052v8.748h-4.687v-18.02h4.374v2.52h.07c1.47-2.205 3.604-2.94 5.354-2.94 2.52 0 4.304.945 5.32 3.185 1.084-2.17 3.428-3.184 5.632-3.184 4.442 0 5.703 3.044 5.703 7.067v11.373h-.003zm15.714 0c-.175-.944-.175-2.135-.21-2.694h-.07c-1.084 1.993-3.43 3.113-5.562 3.113-3.185 0-6.3-1.926-6.3-5.354 0-2.695 1.295-4.27 3.08-5.145 1.785-.875 4.095-1.05 6.054-1.05h2.59c0-2.903-1.295-3.883-4.06-3.883-1.995 0-3.988.77-5.563 1.96l-.14-4.024c1.818-.84 4.27-1.364 6.263-1.364 5.493 0 7.768 2.273 7.768 7.592v2.31c0 1.818.035 3.184.07 4.514.035 1.364.104 2.624.21 4.023h-4.13zm19.178-13.575c-.42-.245-1.26-.385-2.1-.385-3.814 0-3.814 4.758-3.814 7.347v6.613h-4.688v-18.02h4.164v4.093h.07c.21-1.68 2.133-4.513 4.934-4.513.454 0 .943 0 1.435.14v4.725zm13.892 13.575c-.175-.944-.175-2.135-.21-2.694h-.068c-1.085 1.993-3.43 3.113-5.563 3.113-3.184 0-6.298-1.926-6.298-5.354 0-2.695 1.294-4.27 3.08-5.145 1.783-.875 4.093-1.05 6.052-1.05h2.588c0-2.903-1.294-3.883-4.06-3.883-1.993 0-3.987.77-5.56 1.96l-.142-4.024c1.82-.84 4.27-1.364 6.263-1.364 5.492 0 7.768 2.273 7.768 7.592v2.31c0 1.818.035 3.184.07 4.514.034 1.364.104 2.624.21 4.023h-4.132zm15.714.42c-3.675 0-5.703-2.274-5.703-5.844V29.85h-3.464v-3.43h3.464V22.82l4.688-1.504v5.108h4.163v3.43h-4.163v8.395c0 1.54.42 2.975 2.204 2.975.84 0 1.645-.176 2.133-.49l.142 3.71c-.982.278-2.066.418-3.465.418zm22.92-.42h-4.688V34.82c0-2.203-.035-5.177-3.044-5.177-3.394 0-4.13 3.674-4.13 5.982v8.816h-4.687V18.203h4.69v10.67h.07c1.187-1.748 3.218-2.867 5.667-2.867 4.27 0 6.123 3.01 6.123 7.067v11.37zm13.09.42c-5.95 0-9.413-4.13-9.413-9.307 0-5.95 4.094-9.553 9.412-9.553 5.352 0 9.445 3.604 9.445 9.553 0 5.178-3.463 9.307-9.446 9.307zm29.672-.42h-4.688V34.82c0-2.203-.034-5.177-3.044-5.177-3.395 0-4.13 3.674-4.13 5.982v8.816h-4.687V26.425h4.442v2.448h.07c1.47-2.063 3.464-2.868 5.913-2.868 4.27 0 6.123 3.01 6.123 7.067v11.373z"/></g><path fill="#FFF" d="M31.78 40.943c1.293.84 3.148 1.26 4.092 1.26 1.505 0 3.36-.63 3.36-2.553 0-3.254-7.733-2.976-7.733-7.98 0-3.708 2.764-5.492 6.297-5.492 1.54 0 2.8.314 4.095.7l-.28 2.868c-.735-.455-2.694-.91-3.464-.91-1.68 0-3.15.7-3.15 2.17 0 3.64 7.733 2.59 7.733 8.292 0 3.814-3.043 5.562-6.228 5.562-1.68 0-3.394-.174-4.897-.98l.174-2.937zM47.14 18.202h3.29v26.24h-3.29v-26.24zM57.29 27.858c1.646-.98 3.604-1.68 5.878-1.68 5.108 0 7.172 2.52 7.172 7.383v7.383c0 2.03.07 2.976.14 3.5h-3.078v-2.31h-.07c-.77 1.085-2.52 2.728-5.527 2.728-3.85 0-6.544-1.68-6.544-5.56 0-4.48 4.9-5.88 8.293-5.88 1.295 0 2.204 0 3.5.07 0-3.078-1.12-4.652-4.408-4.652-1.854 0-3.85.7-5.18 1.82l-.175-2.8zm9.76 8.083c-.698 0-1.397-.07-2.098-.07-1.784 0-6.193.28-6.193 3.43 0 1.89 1.818 2.904 3.323 2.904 3.254 0 4.968-2.03 4.968-4.688V35.94zM87.243 29.608c-1.26-.525-2.52-.77-3.57-.77-3.673 0-5.736 3.29-5.736 6.684 0 3.184 1.714 6.683 5.947 6.683 1.12 0 2.52-.35 3.534-1.015l.245 2.938c-1.365.63-2.938.733-4.128.733-5.388 0-9.097-4.23-9.097-9.34 0-5.424 3.64-9.342 9.097-9.342 1.33 0 3.044.314 3.988.7l-.28 2.73zM91.444 18.202h3.29v10.95h.07c1.188-1.89 3.253-2.973 5.736-2.973 4.62 0 6.684 2.868 6.684 7.66v10.604h-3.29v-9.237c0-4.163-.91-6.192-3.778-6.367-3.744 0-5.423 3.01-5.423 7.35v8.255h-3.29V18.202zM122.307 29.258h-4.724v9.762c0 2.064 1.26 3.185 2.765 3.185 1.015 0 1.75-.313 2.238-.63v2.8c-.734.21-1.75.49-2.8.49-3.393 0-5.492-1.61-5.492-5.18V29.257h-4.022v-2.66h4.022V22.47l3.29-1.05v5.18h4.723v2.658zM140.12 43.708c-1.26.454-2.695 1.153-5.634 1.153-6.333 0-9.237-3.847-9.237-9.655 0-5.283 3.323-9.026 8.36-9.026 5.95 0 7.874 4.337 7.874 10.075h-12.736c0 3.534 2.765 5.948 5.878 5.948 2.17 0 4.688-1.12 5.493-1.784v3.288zm-2.136-9.902c0-2.73-1.61-4.968-4.443-4.968-3.218 0-4.548 2.66-4.792 4.968h9.236z"/><g fill="#E20613"><path d="M348.358 41.46c.928-.825 2.088-1.83 3.222-2.888 1.984-1.855 5.18-4.768 5.18-7.68 0-1.675-1.495-2.86-3.453-2.86-1.598 0-3.144.618-4.124 1.16l-.258-2.217c1.496-.645 3.094-1.057 4.717-1.057 3.248 0 5.85 1.752 5.85 5.128 0 2.99-3.22 6.186-5.205 8.17-1.006 1.005-2.294 2.088-3.17 2.887h8.633v2.113h-11.39V41.46zM368.565 25.92c4.975 0 6.108 5.36 6.108 9.303 0 3.942-1.134 9.304-6.108 9.304s-6.107-5.36-6.107-9.304 1.134-9.304 6.107-9.304zm0 16.493c3.094 0 3.377-4.948 3.377-7.19 0-2.27-.412-7.19-3.377-7.19-2.963 0-3.375 4.922-3.375 7.19 0 2.242.283 7.19 3.375 7.19zM382.665 29.19l-2.757 2.372-1.366-1.727 4.407-3.608h2.293v17.99h-2.578V29.19zM391.044 39.5c0-2.396 1.65-3.994 3.814-4.74v-.053c-2.63-.928-3.376-2.783-3.376-4.484 0-2.294 2.165-4.304 5.825-4.304 3.556 0 5.566 2.06 5.566 4.045 0 2.01-.825 3.35-3.248 4.64 2.165.747 3.79 2.37 3.79 4.768 0 3.607-2.862 5.154-6.237 5.154-3.042 0-6.134-1.702-6.134-5.026zm5.72-3.788c-1.468 1.03-2.988 1.52-2.988 3.634 0 1.984 1.83 3.067 3.634 3.067 1.727 0 3.222-1.03 3.272-2.835.078-2.526-1.984-2.938-3.917-3.866zm1.006-1.856c2.113-1.624 2.37-2.32 2.37-3.557 0-1.702-1.75-2.27-3.04-2.27-1.186 0-3.04.852-3.04 2.552 0 1.238 1.288 2.09 3.71 3.274z"/></g></svg>