<svg xmlns="http://www.w3.org/2000/svg" xmlns:xlink="http://www.w3.org/1999/xlink" width="17" height="22.746" viewBox="0 0 17 22.746"><defs><path id="a" d="M14.337 22.756l-14.35-.02.027-20.073 14.35.02z"/></defs><clipPath id="b"><use xlink:href="#a" overflow="visible"/></clipPath><path clip-path="url(#b)" fill="#1D1D1B" d="M11.843 15.295c1.534-1.314 2.508-3.264 2.51-5.438.004-2.173-.965-4.127-2.496-5.445-.53-.5-1.45-.97-1.45-.97-.97-.492-2.06-.768-3.218-.77C3.23 2.668.01 5.882.003 9.838c-.005 3.71 2.823 6.777 6.44 7.147l-.005 2.305-2.013-.003v1.45l2.01.002-.002 2.005 1.453.002.003-2.004 2.01.003.003-1.45-2.01-.004.002-2.303c.89-.09 1.73-.343 2.494-.727m-1.446-.972c-.56.183-1.154.283-1.773.282-3.23-.004-5.84-2.703-5.71-5.96.123-3.034 2.634-5.46 5.67-5.487.64-.006 1.253.095 1.828.284 0 0 1.042.29 1.448.716 1.51 1.034 2.5 2.77 2.497 4.73-.003 1.96-.998 3.693-2.51 4.723"/></svg>