<svg xmlns="http://www.w3.org/2000/svg" xmlns:xlink="http://www.w3.org/1999/xlink" width="160" height="190" viewBox="0 0 160 190"><defs><path id="a" d="M0 0h160v185.12H0z"/></defs><clipPath id="b"><use xlink:href="#a" overflow="visible"/></clipPath><path clip-path="url(#b)" fill="#FFF" d="M133.16 127.44l-6.77 6.77.848.846-6.77 6.77c-4.792-3.336-10.425-.933-11 4.23-10.43-2.238-13.606 9.24-6.77 16.077 6.872 6.874 18.303 3.605 16.077-6.77 5.142-.572 7.585-6.178 4.23-11l6.77-6.77.846.847 6.77-6.77-4.23-4.23z"/><path clip-path="url(#b)" fill="none" stroke="#E5231E" stroke-width="1.692" stroke-linecap="round" stroke-linejoin="round" stroke-miterlimit="10" d="M133.16 127.44l-6.77 6.77.848.846-6.77 6.77c-4.792-3.336-10.425-.933-11 4.23-10.43-2.238-13.606 9.24-6.77 16.077 6.872 6.874 18.303 3.605 16.077-6.77 5.142-.572 7.585-6.178 4.23-11l6.77-6.77.846.847 6.77-6.77-4.23-4.23z"/><circle clip-path="url(#b)" fill="none" stroke="#E5231E" stroke-width="1.692" stroke-linecap="round" stroke-linejoin="round" stroke-miterlimit="10" cx="115.862" cy="148.97" r="3.385"/><path clip-path="url(#b)" fill="none" stroke="#E5231E" stroke-width="1.692" stroke-linecap="round" stroke-linejoin="round" stroke-miterlimit="10" d="M103.895 156.15l4.786 4.787M129.775 127.44l1.692 1.693M127.237 129.98l1.692 1.69M137.39 135.056l-1.69-1.692M134.852 137.594l-1.692-1.692"/><path clip-path="url(#b)" fill="#E5231E" d="M128.464 87.268h2.49v97.852h-2.49z"/><path transform="rotate(103.303 145.16 91.893)" clip-path="url(#b)" fill="#E5231E" d="M143.92 77h2.49v29.79h-2.49z"/><path clip-path="url(#b)" fill="#E5231E" d="M130.956 185.094l-.765-2.368 28.993-9.1.765 2.37M39.542 87.268h2.49v97.852h-2.49z"/><path clip-path="url(#b)" fill="#E5231E" d="M41.924 182.63h86.787v2.49H41.925zM157.46 94.102h2.488v80.993h-2.49z"/><path clip-path="url(#b)" fill="none" stroke="#E5231E" stroke-width="2.567" stroke-miterlimit="10" d="M130.263 88.818L85.487 40.646l-45.08 47.428z"/><path clip-path="url(#b)" fill="none" stroke="#E5231E" stroke-width="2.567" stroke-miterlimit="10" d="M71.293 93.446l47.76-44.292-33.464-8.843"/><path clip-path="url(#b)" fill="none" stroke="#E5231E" stroke-width="2.567" stroke-linecap="square" stroke-linejoin="bevel" stroke-miterlimit="10" d="M121.498 50.268l37.206 44.856-88.855-1.678-27.82-3.69"/><path clip-path="url(#b)" fill="none" stroke="#E5231E" stroke-width="2.567" stroke-linecap="square" stroke-linejoin="bevel" stroke-miterlimit="10" d="M71.293 93.446l1.4 81.648-31.354 8.314M72.694 175.094h86.022"/><path clip-path="url(#b)" fill="none" stroke="#E5231E" stroke-width="2.567" stroke-linecap="square" stroke-miterlimit="10" d="M65.668 60.607v-16.82H56.55v26.137"/><path clip-path="url(#b)" fill="none" stroke="#E5231E" stroke-width="1.692" stroke-linecap="round" stroke-linejoin="round" stroke-miterlimit="10" d="M41.408 38.742c0 1.945-1.74 3.89-3.89 3.89-2.147 0-3.89-1.74-3.89-3.89 0-2.148 1.743-3.89 3.89-3.89h3.89v3.89zM55.672 33.555c0 1.945-1.74 3.89-3.89 3.89-2.147 0-3.89-1.74-3.89-3.89 0-2.148 1.743-3.89 3.89-3.89h3.89v3.89z"/><path clip-path="url(#b)" fill="none" stroke="#E5231E" stroke-width="1.692" stroke-linecap="round" stroke-linejoin="round" stroke-miterlimit="10" d="M41.408 36.15V19.29l14.264-5.834v18.802M41.408 23.83l14.264-5.835"/><path clip-path="url(#b)" fill="#FFF" d="M64.005 124.386l2.818.83"/><path clip-path="url(#b)" fill="none" stroke="#E5231E" stroke-width="1.469" stroke-linecap="round" stroke-linejoin="round" stroke-miterlimit="10" d="M64.005 124.386l2.818.83"/><path clip-path="url(#b)" fill="#FFF" d="M63.175 127.203l2.818.83"/><path clip-path="url(#b)" fill="none" stroke="#E5231E" stroke-width="1.469" stroke-linecap="round" stroke-linejoin="round" stroke-miterlimit="10" d="M63.175 127.203l2.818.83"/><path clip-path="url(#b)" fill="#FFF" d="M62.345 130.02l2.818.83"/><path clip-path="url(#b)" fill="none" stroke="#E5231E" stroke-width="1.469" stroke-linecap="round" stroke-linejoin="round" stroke-miterlimit="10" d="M62.345 130.02l2.818.83"/><path clip-path="url(#b)" fill="#FFF" d="M57.46 110.21c2.336.687 3.67 3.136 2.983 5.47l-5.808 19.727c-1.375 4.67 2.442 9.906 7.373 11.358 4.932 1.452 10.978-.88 12.353-5.55l1.453-4.93c.344-1.168 1.568-1.836 2.736-1.492l-7.457-13.68-3.94 13.386c-.344 1.166-1.568 1.834-2.737 1.49-1.168-.344-1.835-1.568-1.49-2.736l3.318-11.27c1.375-4.67-4.114-10.4-8.783-11.775l-2.817-.83"/><path clip-path="url(#b)" fill="none" stroke="#E5231E" stroke-width="1.469" stroke-linecap="round" stroke-linejoin="round" stroke-miterlimit="10" d="M57.46 110.21c2.336.687 3.67 3.136 2.983 5.47l-5.808 19.727c-1.375 4.67 2.442 9.906 7.373 11.358 4.932 1.452 10.978-.88 12.353-5.55l1.453-4.93c.344-1.168 1.568-1.836 2.736-1.492l-7.457-13.68-3.94 13.386c-.344 1.166-1.568 1.834-2.737 1.49-1.168-.344-1.835-1.568-1.49-2.736l3.318-11.27c1.375-4.67-4.114-10.4-8.783-11.775l-2.817-.83"/><path clip-path="url(#b)" fill="none" stroke="#E5231E" stroke-width="1.692" stroke-linecap="round" stroke-linejoin="round" stroke-miterlimit="10" d="M30.15 12.72l.107-1.586c.054-1.287.846-6.232-4.686-7.884-1.71-.51-2.145-1.93-2.145-1.93M28.22 16.938c.436 1.42-.398 3.23-1.968 3.712-1.568.48-3.23-.4-3.71-1.968-.482-1.568.4-3.23 1.967-3.712.517-.16 2.366-.726 2.84-.872l.87 2.84zM27.64 15.044L23.28.846M10.632 31.115l.988-1.246c.774-1.03 4.23-4.654.61-9.15-1.12-1.392-.673-2.808-.673-2.808M6.65 33.495c-.445 1.417-2.16 2.435-3.725 1.94-1.564-.492-2.434-2.16-1.94-3.724.492-1.563 2.16-2.433 3.725-1.94l2.833.892-.892 2.833zM7.246 31.606l4.46-14.167M88.35 107.488c-.195-2.09 5.303-4.31 11.57-4.895 6.27-.585 12.014.587 12.21 2.677.194 2.09-5.236 4.304-11.503 4.89-6.27.584-12.083-.58-12.277-2.672"/><path clip-path="url(#b)" fill="none" stroke="#E5231E" stroke-width="1.692" stroke-linecap="round" stroke-linejoin="round" stroke-miterlimit="10" d="M88.652 110.73c.585 6.27 6.715 10.823 12.982 10.238 6.268-.584 11.382-6.187 10.798-12.455l-.303-3.243M102.206 127.456l-.605-6.485M110.813 126.69l-3.206-7.915M93.694 128.287l1.687-8.372"/><path clip-path="url(#b)" fill="none" stroke="#E5231E" stroke-width="1.692" stroke-linecap="round" stroke-linejoin="round" stroke-miterlimit="10" d="M99.51 110.263l2.163-.202.403 4.325c.055.597-.383 1.125-.98 1.182-.597.056-1.126-.383-1.18-.98l-.405-4.324zM112.23 106.35l.2 2.163M112.2 111.066c-.164.137-.37.23-.597.25-.598.056-1.126-.382-1.182-.98l-.25-2.703M89.963 113.334c.596-.055 1.058-.586 1.002-1.183l-.252-2.702"/></svg>