<svg xmlns="http://www.w3.org/2000/svg" width="74.463" height="57.078" viewBox="0 0 74.463 57.078"><g fill="none" stroke="#E10916" stroke-width=".974" stroke-linecap="round" stroke-linejoin="round" stroke-miterlimit="10"><path d="M2.99 51.084h7.473v5.744H2.99zM47.822 51.084h7.473v5.744h-7.473z"/></g><path fill="none" stroke="#E10916" stroke-width=".974" stroke-linecap="round" stroke-linejoin="round" stroke-miterlimit="10" d="M20.426 45.34H37.86v8.616H20.426z"/><path fill="none" stroke="#E10916" stroke-width=".974" stroke-linecap="round" stroke-linejoin="round" stroke-miterlimit="10" d="M37.86 51.084h19.925V39.596l-7.472-8.617H7.973L.5 39.595v11.488h19.926"/><path fill="none" stroke="#E10916" stroke-width=".974" stroke-linecap="round" stroke-linejoin="round" stroke-miterlimit="10" d="M45.332 13.746H12.954L7.972 30.98h42.34zM.5 25.235h7.472v5.744H.5zM50.313 25.235h7.472v5.744h-7.472zM.5 39.596h9.962v5.744H.5zM47.822 39.596h9.963v5.744h-9.963zM29.142 39.596v-2.872"/><g fill="#E10916"><path d="M69.29 9.124c-1.44.37-2.67.3-3.765.222-.16.878-.92 1.674-1.94 1.938-1.027.264-2.015-.09-2.48-.813-.97.618-2.073 1.302-3.533 1.678-1.805.465-4.11.174-5.453-.073.612.485 1.186 1.033 1.79 1.6 1.234 1.166 2.515 2.372 4.187 3.112 1.897.836 4.038.926 6.543.28.01 0 .02-.006.03-.01.01 0 .023 0 .033-.007 2.505-.648 4.407-1.784 5.818-3.473 1.246-1.492 1.956-3.208 2.642-4.875.336-.808.652-1.582 1.027-2.317-1.13.885-3.1 2.274-4.9 2.74"/><path d="M57.303 10.75c1.333-.34 2.374-1.003 3.29-1.586.777-.49 1.507-.957 2.3-1.17l.015-.002c0-.003.005-.003.01-.003.005-.004.01-.004.015-.007.005 0 .01 0 .015-.002.793-.19 1.624-.134 2.505-.066 1.046.073 2.237.16 3.57-.185 1.995-.512 4.364-2.42 5.104-3.036-.02-.005-.044-.01-.068-.01-1.397-.166-2.434-1.06-3.537-2.015C69.053 1.395 67.53.08 65.196.68c-1.85.477-2.67 2.19-3.03 3.542-.103-.134-.215-.264-.336-.398-1.09-1.206-2.36-1.666-3.673-1.33-2.335.603-3.226 2.54-4.086 4.415-.646 1.402-1.255 2.726-2.456 3.56-.02.01-.04.027-.06.04.9.2 3.75.757 5.75.24"/></g></svg>