<svg xmlns="http://www.w3.org/2000/svg" xmlns:xlink="http://www.w3.org/1999/xlink" width="42" height="50" viewBox="0 0 42 50"><path fill="#E4221E" d="M31.06 16.568h.852V50h-.85z"/><path fill="#E4221E" d="M41.622 19.733l-9.906-2.335.195-.828 9.908 2.334zM31.65 49.182l.26.81 9.907-3.11-.26-.81M.68 16.568h.85V50H.68z"/><path fill="#E4221E" d="M1.494 49.15h29.65V50H1.495zM1.53 16.568h29.786v.85H1.53zM40.967 18.903h.85v27.672h-.85z"/><defs><path id="a" d="M.657 0h41.178v50H.657z"/></defs><clipPath id="b"><use xlink:href="#a" overflow="visible"/></clipPath><path clip-path="url(#b)" fill="none" stroke="#E4221E" stroke-width=".877" stroke-miterlimit="10" d="M.975 16.844L16.377.64l15.298 16.458"/><path clip-path="url(#b)" fill="none" stroke="#E4221E" stroke-width=".877" stroke-miterlimit="10" d="M11.527 18.68L27.845 3.545 16.412.526"/><path clip-path="url(#b)" fill="none" stroke="#E4221E" stroke-width=".877" stroke-linecap="square" stroke-linejoin="bevel" stroke-miterlimit="10" d="M28.68 3.927l12.712 15.325-30.358-.573-9.504-1.26"/><path clip-path="url(#b)" fill="none" stroke="#E4221E" stroke-width=".877" stroke-linecap="square" stroke-linejoin="bevel" stroke-miterlimit="10" d="M11.527 18.68l.48 27.895-10.714 2.84M12.006 46.574h29.39"/><path fill="none" stroke="#E4221E" stroke-width=".877" stroke-linecap="square" stroke-miterlimit="10" d="M9.605 7.46V1.712H6.49v8.93"/></svg>