<svg xmlns="http://www.w3.org/2000/svg" xmlns:xlink="http://www.w3.org/1999/xlink" width="17" height="22.746" viewBox="0 0 17 22.746"><defs><path id="a" d="M0 0h17v17H0z"/></defs><clipPath id="b"><use xlink:href="#a" overflow="visible"/></clipPath><path clip-path="url(#b)" fill="#1D1D1B" d="M3.94 16.236c.987.5 2.085.764 3.224.764 1.914 0 3.712-.745 5.064-2.098 1.354-1.354 2.1-3.152 2.1-5.066 0-1.67-.566-3.25-1.61-4.527l2.83-2.832.004 2.114L17 4.59 16.992.007 12.41 0l-.002 1.45 2.113.004-2.83 2.83c-1.274-1.044-2.857-1.61-4.526-1.61-1.14 0-2.237.263-3.225.762 0 0-.813.456-1.446.968-.136.117-.268.24-.396.368-2.793 2.793-2.793 7.337 0 10.13.128.128.26.25.396.367m1.447-.713c-.29-.2-.563-.426-.817-.68-2.228-2.23-2.228-5.853 0-8.08.254-.255.524-.48.814-.68h.004l.008-.005s1.002-.612 1.44-.71c.565-.184 1.163-.28 1.775-.28 1.526 0 2.96.596 4.04 1.675 1.08 1.08 1.674 2.514 1.674 4.04 0 1.527-.594 2.96-1.674 4.04-1.078 1.08-2.513 1.675-4.04 1.675-.612 0-1.21-.096-1.776-.28-.442-.124-1.446-.715-1.446-.715"/><g><defs><path id="c" d="M0 2.673h14.35v20.073H0z"/></defs><clipPath id="d"><use xlink:href="#c" overflow="visible"/></clipPath><path clip-path="url(#d)" fill="#1D1D1B" d="M11.846 15.29c1.533-1.317 2.504-3.27 2.504-5.442 0-2.173-.97-4.125-2.504-5.44-.53-.5-1.45-.97-1.45-.97-.972-.49-2.063-.764-3.22-.764C3.217 2.674 0 5.892 0 9.848c0 3.71 2.832 6.773 6.448 7.14v2.304h-2.01v1.45h2.01v2.005h1.454v-2.004h2.01v-1.45h-2.01v-2.304c.888-.09 1.728-.345 2.492-.73m-1.447-.97c-.56.18-1.154.282-1.772.282-3.23 0-5.845-2.695-5.718-5.953.118-3.034 2.625-5.465 5.662-5.495.64-.007 1.252.094 1.828.28 0 0 1.042.29 1.45.716C11.907 6.154 12.9 7.888 12.9 9.85s-.993 3.695-2.503 4.727"/></g></svg>