<?xml version="1.0" encoding="utf-8"?>
<!-- Generator: Adobe Illustrator 16.0.0, SVG Export Plug-In . SVG Version: 6.00 Build 0)  -->
<!DOCTYPE svg PUBLIC "-//W3C//DTD SVG 1.1//EN" "http://www.w3.org/Graphics/SVG/1.1/DTD/svg11.dtd">
<svg version="1.1" id="Layer_1" xmlns="http://www.w3.org/2000/svg" xmlns:xlink="http://www.w3.org/1999/xlink" x="0px" y="0px"
	 width="74.463px" height="57.078px" viewBox="0 0 74.463 57.078" enable-background="new 0 0 74.463 57.078" xml:space="preserve">
<g>
	
		<rect x="2.991" y="51.084" fill="none" stroke="#E10916" stroke-width="0.9735" stroke-linecap="round" stroke-linejoin="round" stroke-miterlimit="10" width="7.472" height="5.744"/>
	
		<rect x="47.822" y="51.084" fill="none" stroke="#E10916" stroke-width="0.9735" stroke-linecap="round" stroke-linejoin="round" stroke-miterlimit="10" width="7.473" height="5.744"/>
</g>
<rect x="20.426" y="45.34" fill="none" stroke="#E10916" stroke-width="0.9735" stroke-linecap="round" stroke-linejoin="round" stroke-miterlimit="10" width="17.434" height="8.616"/>
<g>
	
		<polyline fill="none" stroke="#E10916" stroke-width="0.9735" stroke-linecap="round" stroke-linejoin="round" stroke-miterlimit="10" points="
		37.86,51.084 57.785,51.084 57.785,39.596 50.313,30.979 7.972,30.979 0.5,39.596 0.5,51.084 20.426,51.084 	"/>
</g>
<polygon fill="none" stroke="#E10916" stroke-width="0.9735" stroke-linecap="round" stroke-linejoin="round" stroke-miterlimit="10" points="
	45.332,13.746 12.954,13.746 7.972,30.979 50.313,30.979 "/>
<g>
	
		<rect x="0.5" y="25.235" fill="none" stroke="#E10916" stroke-width="0.9735" stroke-linecap="round" stroke-linejoin="round" stroke-miterlimit="10" width="7.472" height="5.744"/>
</g>
<rect x="50.313" y="25.235" fill="none" stroke="#E10916" stroke-width="0.9735" stroke-linecap="round" stroke-linejoin="round" stroke-miterlimit="10" width="7.472" height="5.744"/>
<g>
	
		<rect x="0.5" y="39.596" fill="none" stroke="#E10916" stroke-width="0.9735" stroke-linecap="round" stroke-linejoin="round" stroke-miterlimit="10" width="9.962" height="5.744"/>
</g>
<rect x="47.822" y="39.596" fill="none" stroke="#E10916" stroke-width="0.9735" stroke-linecap="round" stroke-linejoin="round" stroke-miterlimit="10" width="9.963" height="5.744"/>
<line fill="none" stroke="#E10916" stroke-width="0.9735" stroke-linecap="round" stroke-linejoin="round" stroke-miterlimit="10" x1="29.142" y1="39.596" x2="29.142" y2="36.724"/>
<g>
	<path fill="#E10916" d="M69.29,9.124c-1.439,0.371-2.671,0.3-3.765,0.222c-0.161,0.878-0.92,1.674-1.941,1.938
		c-1.026,0.264-2.014-0.089-2.48-0.813c-0.969,0.617-2.072,1.301-3.532,1.677c-1.805,0.465-4.11,0.174-5.453-0.073
		c0.613,0.485,1.187,1.033,1.79,1.599c1.235,1.167,2.516,2.373,4.188,3.113c1.897,0.836,4.038,0.926,6.543,0.28
		c0.01,0,0.02-0.006,0.029-0.011c0.01,0,0.024,0,0.034-0.006c2.505-0.648,4.407-1.784,5.818-3.473
		c1.245-1.492,1.955-3.208,2.641-4.875c0.336-0.808,0.652-1.582,1.027-2.317C73.06,7.27,71.089,8.659,69.29,9.124"/>
	<path fill="#E10916" d="M57.303,10.751c1.333-0.342,2.374-1.004,3.289-1.587c0.778-0.491,1.508-0.957,2.301-1.17
		c0.005,0,0.01-0.002,0.015-0.002c0-0.003,0.005-0.003,0.01-0.003c0.005-0.003,0.01-0.003,0.015-0.006c0.005,0,0.01,0,0.015-0.002
		c0.793-0.191,1.624-0.135,2.505-0.067c1.046,0.073,2.237,0.16,3.57-0.185c1.995-0.511,4.364-2.418,5.104-3.035
		c-0.02-0.005-0.044-0.011-0.068-0.011c-1.396-0.165-2.433-1.06-3.536-2.014c-1.47-1.273-2.992-2.589-5.327-1.989
		c-1.849,0.477-2.671,2.191-3.03,3.542c-0.103-0.134-0.215-0.264-0.336-0.398c-1.09-1.206-2.359-1.666-3.673-1.33
		c-2.335,0.603-3.226,2.541-4.086,4.415c-0.647,1.403-1.256,2.727-2.457,3.56c-0.02,0.011-0.039,0.028-0.059,0.042
		C52.454,10.709,55.304,11.267,57.303,10.751"/>
</g>
</svg>
