<?xml version="1.0" encoding="utf-8"?>
<!-- Generator: Adobe Illustrator 16.0.0, SVG Export Plug-In . SVG Version: 6.00 Build 0)  -->
<!DOCTYPE svg PUBLIC "-//W3C//DTD SVG 1.1//EN" "http://www.w3.org/Graphics/SVG/1.1/DTD/svg11.dtd">
<svg version="1.1" id="Layer_1" xmlns="http://www.w3.org/2000/svg" xmlns:xlink="http://www.w3.org/1999/xlink" x="0px" y="0px"
	 width="404.478px" height="67px" viewBox="0 0 404.478 67" enable-background="new 0 0 404.478 67" xml:space="preserve">
<g>
	<path fill="#E20613" d="M179.944,39.23c0,1.539,1.294,2.204,2.974,2.204c1.435,0,2.554-0.63,3.289-1.609
		c0.77-1.015,0.979-2.31,0.979-3.709h-2.029C183.058,36.116,179.944,36.465,179.944,39.23z"/>
	<path fill="#E20613" d="M272.399,29.643c-3.044,0-4.514,2.659-4.514,5.353c0,2.975,0.944,6.229,4.514,6.229
		c3.604,0,4.548-3.219,4.548-6.229C276.947,32.232,275.478,29.643,272.399,29.643z"/>
	<path fill="#E20613" d="M213.014,39.23c0,1.539,1.294,2.204,2.974,2.204c1.435,0,2.555-0.63,3.289-1.609
		c0.77-1.015,0.979-2.31,0.979-3.709h-2.029C216.128,36.116,213.014,36.465,213.014,39.23z"/>
	<path fill="#E20613" d="M0,0V67h319.01l14.004-12.947V0H0z M171.892,44.443h-4.688V33.702c0-1.68,0-4.059-2.694-4.059
		c-3.114,0-3.499,3.708-3.499,6.053v8.747h-4.688V33.702c0-1.68,0-4.059-2.694-4.059c-3.114,0-3.499,3.708-3.499,6.053v8.747h-4.688
		V26.424h4.374v2.519h0.07c1.47-2.204,3.604-2.938,5.354-2.938c2.519,0,4.303,0.944,5.318,3.184
		c1.085-2.169,3.429-3.184,5.633-3.184c4.443,0,5.703,3.044,5.703,7.067V44.443z M187.606,44.443
		c-0.175-0.944-0.175-2.135-0.21-2.694h-0.07c-1.084,1.994-3.429,3.114-5.563,3.114c-3.184,0-6.298-1.925-6.298-5.354
		c0-2.694,1.294-4.269,3.079-5.144c1.785-0.874,4.094-1.049,6.053-1.049h2.589c0-2.904-1.294-3.884-4.059-3.884
		c-1.994,0-3.988,0.77-5.563,1.959l-0.14-4.023c1.819-0.84,4.269-1.364,6.263-1.364c5.493,0,7.768,2.273,7.768,7.592v2.31
		c0,1.819,0.035,3.184,0.07,4.514c0.035,1.364,0.105,2.624,0.21,4.023H187.606z M206.784,30.868c-0.42-0.245-1.26-0.385-2.1-0.385
		c-3.814,0-3.814,4.758-3.814,7.347v6.613h-4.688V26.424h4.164v4.093h0.07c0.21-1.679,2.134-4.513,4.934-4.513
		c0.454,0,0.944,0,1.435,0.14V30.868z M220.676,44.443c-0.175-0.944-0.175-2.135-0.21-2.694h-0.069
		c-1.085,1.994-3.43,3.114-5.563,3.114c-3.184,0-6.298-1.925-6.298-5.354c0-2.694,1.294-4.269,3.079-5.144
		c1.784-0.874,4.094-1.049,6.053-1.049h2.589c0-2.904-1.294-3.884-4.059-3.884c-1.994,0-3.988,0.77-5.562,1.959l-0.141-4.023
		c1.819-0.84,4.269-1.364,6.263-1.364c5.493,0,7.768,2.273,7.768,7.592v2.31c0,1.819,0.035,3.184,0.07,4.514
		c0.035,1.364,0.104,2.624,0.21,4.023H220.676z M236.39,44.863c-3.674,0-5.703-2.274-5.703-5.843v-9.167h-3.464v-3.429h3.464V22.82
		l4.688-1.504v5.108h4.163v3.429h-4.163v8.396c0,1.54,0.419,2.975,2.204,2.975c0.84,0,1.645-0.175,2.134-0.49l0.141,3.709
		C238.873,44.723,237.789,44.863,236.39,44.863z M259.31,44.443h-4.688v-9.622c0-2.204-0.035-5.178-3.044-5.178
		c-3.394,0-4.129,3.674-4.129,5.982v8.817h-4.688V18.202h4.688v10.671h0.07c1.189-1.749,3.219-2.868,5.668-2.868
		c4.269,0,6.123,3.009,6.123,7.067V44.443z M272.399,44.863c-5.948,0-9.412-4.129-9.412-9.307c0-5.948,4.094-9.552,9.412-9.552
		c5.353,0,9.446,3.604,9.446,9.552C281.846,40.734,278.382,44.863,272.399,44.863z M302.072,44.443h-4.688v-9.622
		c0-2.204-0.035-5.178-3.044-5.178c-3.395,0-4.129,3.674-4.129,5.982v8.817h-4.688V26.424h4.443v2.448h0.07
		c1.47-2.063,3.464-2.868,5.913-2.868c4.269,0,6.123,3.009,6.123,7.067V44.443z"/>
</g>
<path fill="#FFFFFF" d="M31.779,40.944c1.294,0.84,3.149,1.26,4.093,1.26c1.505,0,3.359-0.63,3.359-2.554
	c0-3.254-7.732-2.975-7.732-7.978c0-3.709,2.764-5.493,6.298-5.493c1.54,0,2.799,0.314,4.094,0.699l-0.28,2.869
	c-0.735-0.455-2.694-0.909-3.464-0.909c-1.679,0-3.149,0.699-3.149,2.169c0,3.639,7.732,2.589,7.732,8.292
	c0,3.814-3.044,5.563-6.228,5.563c-1.679,0-3.394-0.175-4.898-0.979L31.779,40.944z"/>
<path fill="#FFFFFF" d="M47.141,18.202h3.289v26.241h-3.289V18.202z"/>
<path fill="#FFFFFF" d="M57.29,27.858c1.645-0.979,3.604-1.679,5.878-1.679c5.108,0,7.172,2.519,7.172,7.382v7.383
	c0,2.029,0.07,2.975,0.14,3.499h-3.079v-2.31h-0.07c-0.77,1.085-2.52,2.729-5.528,2.729c-3.849,0-6.543-1.68-6.543-5.563
	c0-4.479,4.898-5.878,8.292-5.878c1.294,0,2.204,0,3.499,0.07c0-3.079-1.12-4.653-4.408-4.653c-1.854,0-3.849,0.699-5.178,1.819
	L57.29,27.858z M67.051,35.941c-0.7,0-1.399-0.07-2.099-0.07c-1.784,0-6.193,0.28-6.193,3.429c0,1.89,1.819,2.904,3.324,2.904
	c3.254,0,4.968-2.029,4.968-4.688V35.941z"/>
<path fill="#FFFFFF" d="M87.243,29.608c-1.26-0.525-2.519-0.77-3.569-0.77c-3.674,0-5.738,3.289-5.738,6.683
	c0,3.184,1.714,6.683,5.948,6.683c1.12,0,2.519-0.35,3.534-1.015l0.245,2.939c-1.365,0.629-2.939,0.734-4.128,0.734
	c-5.388,0-9.097-4.233-9.097-9.342c0-5.424,3.639-9.342,9.097-9.342c1.33,0,3.044,0.314,3.988,0.699L87.243,29.608z"/>
<path fill="#FFFFFF" d="M91.444,18.202h3.289v10.951h0.07c1.19-1.89,3.254-2.974,5.738-2.974c4.619,0,6.683,2.869,6.683,7.662
	v10.602h-3.289v-9.237c0-4.163-0.91-6.192-3.779-6.367c-3.744,0-5.423,3.009-5.423,7.348v8.257h-3.289V18.202z"/>
<path fill="#FFFFFF" d="M122.307,29.258h-4.723v9.762c0,2.064,1.259,3.184,2.764,3.184c1.015,0,1.749-0.314,2.239-0.63v2.799
	c-0.735,0.21-1.75,0.49-2.799,0.49c-3.394,0-5.493-1.609-5.493-5.179V29.258h-4.023v-2.659h4.023V22.47l3.289-1.05v5.179h4.723
	V29.258z"/>
<path fill="#FFFFFF" d="M140.119,43.708c-1.26,0.454-2.694,1.154-5.633,1.154c-6.333,0-9.237-3.849-9.237-9.657
	c0-5.283,3.324-9.026,8.362-9.026c5.948,0,7.873,4.338,7.873,10.076h-12.736c0,3.534,2.764,5.948,5.878,5.948
	c2.169,0,4.688-1.119,5.493-1.784V43.708z M137.984,33.806c0-2.729-1.609-4.968-4.443-4.968c-3.219,0-4.549,2.659-4.793,4.968
	H137.984z"/>
<text transform="matrix(1 0 0 1 347.0693 44.2163)" fill="#E20613" font-family="'FrutigerLTStd-Roman'" font-size="25.7764">2018</text>
</svg>
