<?xml version="1.0" encoding="utf-8"?>
<!-- Generator: Adobe Illustrator 16.0.0, SVG Export Plug-In . SVG Version: 6.00 Build 0)  -->
<!DOCTYPE svg PUBLIC "-//W3C//DTD SVG 1.1//EN" "http://www.w3.org/Graphics/SVG/1.1/DTD/svg11.dtd">
<svg version="1.1" id="Layer_1" xmlns="http://www.w3.org/2000/svg" xmlns:xlink="http://www.w3.org/1999/xlink" x="0px" y="0px"
	 width="404.479px" height="67px" viewBox="0 0 404.479 67" enable-background="new 0 0 404.479 67" xml:space="preserve">
<g>
	<path fill="#E20613" d="M179.944,39.23c0,1.539,1.294,2.203,2.974,2.203c1.436,0,2.555-0.629,3.289-1.608
		c0.771-1.015,0.979-2.31,0.979-3.71h-2.029C183.058,36.116,179.944,36.465,179.944,39.23z"/>
	<path fill="#E20613" d="M272.399,29.643c-3.044,0-4.515,2.659-4.515,5.353c0,2.975,0.944,6.229,4.515,6.229
		c3.604,0,4.548-3.219,4.548-6.229C276.947,32.232,275.478,29.643,272.399,29.643z"/>
	<path fill="#E20613" d="M213.014,39.23c0,1.539,1.294,2.203,2.974,2.203c1.435,0,2.555-0.629,3.289-1.608
		c0.77-1.015,0.979-2.31,0.979-3.71h-2.028C216.128,36.116,213.014,36.465,213.014,39.23z"/>
	<path fill="#E20613" d="M0,0v67H319.01l14.004-12.947V0H0z M171.892,44.443h-4.688V33.702c0-1.68,0-4.059-2.694-4.059
		c-3.113,0-3.498,3.708-3.498,6.052v8.748h-4.688V33.702c0-1.68,0-4.059-2.694-4.059c-3.113,0-3.499,3.708-3.499,6.052v8.748h-4.688
		v-18.02h4.374v2.519h0.07c1.47-2.204,3.604-2.938,5.354-2.938c2.519,0,4.303,0.944,5.318,3.184
		c1.085-2.169,3.429-3.184,5.633-3.184c4.442,0,5.703,3.044,5.703,7.067v11.372H171.892z M187.606,44.443
		c-0.175-0.944-0.175-2.135-0.21-2.694h-0.07c-1.084,1.994-3.429,3.114-5.562,3.114c-3.185,0-6.299-1.926-6.299-5.354
		c0-2.694,1.294-4.269,3.079-5.144c1.785-0.875,4.095-1.049,6.054-1.049h2.589c0-2.904-1.294-3.884-4.06-3.884
		c-1.994,0-3.987,0.77-5.562,1.959l-0.141-4.023c1.819-0.84,4.27-1.364,6.264-1.364c5.493,0,7.768,2.273,7.768,7.592v2.31
		c0,1.818,0.035,3.184,0.07,4.514c0.035,1.364,0.104,2.624,0.21,4.023H187.606z M206.784,30.868c-0.42-0.245-1.26-0.385-2.1-0.385
		c-3.814,0-3.814,4.758-3.814,7.347v6.613h-4.688v-18.02h4.164v4.093h0.069c0.21-1.679,2.134-4.513,4.935-4.513
		c0.454,0,0.943,0,1.435,0.14L206.784,30.868L206.784,30.868z M220.676,44.443c-0.175-0.944-0.175-2.135-0.21-2.694h-0.068
		c-1.085,1.994-3.431,3.114-5.563,3.114c-3.184,0-6.298-1.926-6.298-5.354c0-2.694,1.294-4.269,3.079-5.144
		c1.784-0.875,4.094-1.049,6.053-1.049h2.589c0-2.904-1.294-3.884-4.059-3.884c-1.994,0-3.988,0.77-5.562,1.959l-0.141-4.023
		c1.819-0.84,4.27-1.364,6.263-1.364c5.493,0,7.769,2.273,7.769,7.592v2.31c0,1.818,0.035,3.184,0.07,4.514
		c0.034,1.364,0.104,2.624,0.21,4.023H220.676z M236.39,44.863c-3.675,0-5.703-2.274-5.703-5.844v-9.167h-3.464v-3.429h3.464V22.82
		l4.688-1.504v5.108h4.163v3.429h-4.163v8.396c0,1.54,0.419,2.976,2.204,2.976c0.84,0,1.646-0.176,2.134-0.49l0.142,3.709
		C238.873,44.723,237.789,44.863,236.39,44.863z M259.31,44.443h-4.688V34.82c0-2.203-0.035-5.177-3.044-5.177
		c-3.394,0-4.129,3.674-4.129,5.982v8.816h-4.688V18.202h4.688v10.671h0.07c1.188-1.749,3.219-2.868,5.668-2.868
		c4.269,0,6.123,3.009,6.123,7.067V44.443z M272.399,44.863c-5.948,0-9.412-4.129-9.412-9.307c0-5.949,4.094-9.553,9.412-9.553
		c5.353,0,9.446,3.604,9.446,9.553C281.846,40.734,278.382,44.863,272.399,44.863z M302.072,44.443h-4.688V34.82
		c0-2.203-0.034-5.177-3.044-5.177c-3.395,0-4.129,3.674-4.129,5.982v8.816h-4.688V26.424h4.442v2.448h0.07
		c1.47-2.063,3.464-2.868,5.913-2.868c4.27,0,6.123,3.009,6.123,7.067V44.443z"/>
</g>
<path fill="#FFFFFF" d="M31.779,40.943c1.294,0.841,3.149,1.261,4.093,1.261c1.505,0,3.359-0.63,3.359-2.554
	c0-3.254-7.732-2.976-7.732-7.979c0-3.709,2.765-5.493,6.298-5.493c1.54,0,2.8,0.314,4.095,0.699l-0.28,2.869
	c-0.735-0.455-2.694-0.909-3.464-0.909c-1.68,0-3.149,0.699-3.149,2.169c0,3.64,7.732,2.589,7.732,8.292
	c0,3.814-3.044,5.562-6.229,5.562c-1.679,0-3.394-0.174-4.897-0.979L31.779,40.943z"/>
<path fill="#FFFFFF" d="M47.141,18.202h3.289v26.241h-3.289V18.202z"/>
<path fill="#FFFFFF" d="M57.29,27.858c1.646-0.979,3.604-1.679,5.878-1.679c5.108,0,7.172,2.519,7.172,7.382v7.382
	c0,2.029,0.07,2.976,0.141,3.5h-3.079v-2.311h-0.07c-0.77,1.086-2.52,2.729-5.527,2.729c-3.85,0-6.544-1.68-6.544-5.562
	c0-4.479,4.898-5.878,8.292-5.878c1.295,0,2.204,0,3.499,0.07c0-3.079-1.119-4.653-4.407-4.653c-1.854,0-3.85,0.699-5.179,1.819
	L57.29,27.858z M67.051,35.941c-0.699,0-1.398-0.07-2.099-0.07c-1.784,0-6.193,0.279-6.193,3.429c0,1.89,1.819,2.904,3.324,2.904
	c3.254,0,4.968-2.029,4.968-4.688V35.941z"/>
<path fill="#FFFFFF" d="M87.243,29.608c-1.26-0.525-2.519-0.77-3.569-0.77c-3.674,0-5.737,3.289-5.737,6.684
	c0,3.184,1.714,6.683,5.947,6.683c1.12,0,2.52-0.351,3.534-1.015l0.245,2.938c-1.365,0.629-2.938,0.733-4.128,0.733
	c-5.388,0-9.097-4.232-9.097-9.342c0-5.423,3.639-9.341,9.097-9.341c1.33,0,3.044,0.314,3.988,0.699L87.243,29.608z"/>
<path fill="#FFFFFF" d="M91.444,18.202h3.289v10.951h0.07c1.189-1.89,3.254-2.974,5.737-2.974c4.619,0,6.684,2.869,6.684,7.662
	v10.603h-3.289v-9.237c0-4.163-0.91-6.192-3.779-6.367c-3.744,0-5.423,3.009-5.423,7.349v8.256h-3.289V18.202z"/>
<path fill="#FFFFFF" d="M122.307,29.258h-4.724v9.762c0,2.064,1.259,3.185,2.765,3.185c1.015,0,1.749-0.313,2.238-0.63v2.799
	c-0.734,0.21-1.75,0.49-2.799,0.49c-3.394,0-5.493-1.609-5.493-5.18V29.258h-4.022v-2.659h4.022V22.47l3.289-1.05v5.179h4.724
	V29.258z"/>
<path fill="#FFFFFF" d="M140.119,43.708c-1.26,0.454-2.694,1.153-5.633,1.153c-6.333,0-9.237-3.848-9.237-9.656
	c0-5.283,3.324-9.026,8.362-9.026c5.948,0,7.873,4.338,7.873,10.076h-12.736c0,3.534,2.765,5.948,5.878,5.948
	c2.169,0,4.688-1.119,5.493-1.784V43.708L140.119,43.708z M137.984,33.806c0-2.729-1.609-4.968-4.443-4.968
	c-3.219,0-4.549,2.659-4.793,4.968H137.984z"/>
<g enable-background="new    ">
	<path fill="#E20613" d="M348.358,41.459c0.928-0.824,2.088-1.83,3.222-2.887c1.984-1.855,5.181-4.768,5.181-7.68
		c0-1.675-1.496-2.86-3.454-2.86c-1.598,0-3.144,0.618-4.124,1.159l-0.258-2.216c1.496-0.645,3.094-1.057,4.717-1.057
		c3.248,0,5.851,1.752,5.851,5.128c0,2.99-3.222,6.186-5.206,8.17c-1.006,1.005-2.294,2.088-3.17,2.887h8.633v2.113h-11.391V41.459z
		"/>
	<path fill="#E20613" d="M368.565,25.919c4.975,0,6.108,5.36,6.108,9.304c0,3.942-1.134,9.304-6.108,9.304
		c-4.974,0-6.107-5.361-6.107-9.304C362.458,31.279,363.592,25.919,368.565,25.919z M368.565,42.413c3.094,0,3.377-4.948,3.377-7.19
		c0-2.269-0.412-7.19-3.377-7.19c-2.963,0-3.375,4.922-3.375,7.19C365.19,37.465,365.473,42.413,368.565,42.413z"/>
	<path fill="#E20613" d="M382.665,29.191l-2.757,2.371l-1.366-1.727l4.407-3.608h2.294v17.989h-2.578V29.191z"/>
	<path fill="#E20613" d="M391.044,39.501c0-2.397,1.65-3.995,3.814-4.742v-0.052c-2.629-0.928-3.376-2.783-3.376-4.484
		c0-2.294,2.165-4.304,5.825-4.304c3.556,0,5.566,2.062,5.566,4.046c0,2.01-0.825,3.351-3.248,4.639
		c2.165,0.748,3.789,2.371,3.789,4.769c0,3.607-2.861,5.154-6.236,5.154C394.136,44.526,391.044,42.825,391.044,39.501z
		 M396.765,35.712c-1.469,1.031-2.989,1.521-2.989,3.634c0,1.984,1.83,3.067,3.634,3.067c1.727,0,3.222-1.031,3.272-2.835
		C400.76,37.052,398.698,36.64,396.765,35.712z M397.77,33.856c2.113-1.624,2.371-2.319,2.371-3.557
		c0-1.701-1.752-2.268-3.041-2.268c-1.186,0-3.041,0.851-3.041,2.551C394.059,31.82,395.348,32.671,397.77,33.856z"/>
</g>
</svg>
