<?xml version="1.0" encoding="utf-8"?>
<!-- Generator: Adobe Illustrator 16.0.0, SVG Export Plug-In . SVG Version: 6.00 Build 0)  -->
<!DOCTYPE svg PUBLIC "-//W3C//DTD SVG 1.1//EN" "http://www.w3.org/Graphics/SVG/1.1/DTD/svg11.dtd">
<svg version="1.1" id="Layer_1" xmlns="http://www.w3.org/2000/svg" xmlns:xlink="http://www.w3.org/1999/xlink" x="0px" y="0px"
	 width="17px" height="22.746px" viewBox="0 0 17 22.746" enable-background="new 0 0 17 22.746" xml:space="preserve">
<g>
	<g>
		<defs>
			<rect id="SVGID_1_" x="0" y="2.673" transform="matrix(-1 -0.0013 0.0013 -1 14.3337 25.4287)" width="14.349" height="20.074"/>
		</defs>
		<clipPath id="SVGID_2_">
			<use xlink:href="#SVGID_1_"  overflow="visible"/>
		</clipPath>
		<path clip-path="url(#SVGID_2_)" fill="#1D1D1B" d="M11.843,15.295c1.534-1.314,2.508-3.264,2.511-5.438
			c0.003-2.173-0.966-4.127-2.497-5.445c-0.53-0.499-1.45-0.97-1.45-0.97c-0.97-0.492-2.061-0.768-3.218-0.77
			C3.231,2.668,0.009,5.882,0.004,9.838c-0.005,3.711,2.823,6.777,6.439,7.147L6.439,19.29l-2.012-0.003l-0.001,1.449l2.012,0.003
			l-0.003,2.006l1.453,0.002l0.003-2.004l2.01,0.003l0.002-1.451l-2.011-0.003l0.003-2.303c0.889-0.089,1.73-0.342,2.494-0.726
			 M8.944,15.291c-0.56,0.182-1.154,0.282-1.773,0.281c-3.23-0.004-5.841-2.703-5.71-5.961c0.122-3.033,2.633-5.46,5.669-5.486
			C7.77,4.119,8.383,4.22,8.958,4.409c0,0,1.042,0.291,1.448,0.717c1.509,1.034,2.499,2.769,2.497,4.73
			c-0.003,1.961-0.998,3.693-2.509,4.723"/>
	</g>
</g>
</svg>
