<?xml version="1.0" encoding="utf-8"?>
<!-- Generator: Adobe Illustrator 16.0.0, SVG Export Plug-In . SVG Version: 6.00 Build 0)  -->
<!DOCTYPE svg PUBLIC "-//W3C//DTD SVG 1.1//EN" "http://www.w3.org/Graphics/SVG/1.1/DTD/svg11.dtd">
<svg version="1.1" id="Layer_1" xmlns="http://www.w3.org/2000/svg" xmlns:xlink="http://www.w3.org/1999/xlink" x="0px" y="0px"
	 width="17px" height="17px" viewBox="0 0 17 17" enable-background="new 0 0 17 17" xml:space="preserve">
<g>
	<defs>
		<rect id="SVGID_1_" x="1.924" width="12.152" height="17"/>
	</defs>
	<clipPath id="SVGID_2_">
		<use xlink:href="#SVGID_1_"  overflow="visible"/>
	</clipPath>
	<path clip-path="url(#SVGID_2_)" fill="#1D1D1B" d="M11.956,10.686c1.298-1.115,2.12-2.768,2.12-4.609
		c0-1.841-0.822-3.494-2.12-4.609c-0.45-0.422-1.229-0.82-1.229-0.82C9.905,0.233,8.98,0,8,0C4.649,0,1.924,2.726,1.924,6.076
		c0,3.144,2.398,5.736,5.461,6.046v1.951H5.681v1.229h1.704V17h1.23v-1.697h1.704v-1.229H8.615v-1.951
		c0.753-0.076,1.465-0.29,2.111-0.616 M9.501,10.685C9.027,10.839,8.524,10.924,8,10.924c-2.736,0-4.95-2.281-4.843-5.041
		C3.257,3.314,5.381,1.255,7.952,1.23c0.542-0.006,1.062,0.079,1.549,0.238c0,0,0.883,0.245,1.228,0.605
		c1.278,0.874,2.119,2.342,2.119,4.003c0,1.662-0.841,3.13-2.119,4.004"/>
</g>
</svg>
