<?xml version="1.0" encoding="utf-8"?>
<!-- Generator: Adobe Illustrator 16.0.0, SVG Export Plug-In . SVG Version: 6.00 Build 0)  -->
<!DOCTYPE svg PUBLIC "-//W3C//DTD SVG 1.1//EN" "http://www.w3.org/Graphics/SVG/1.1/DTD/svg11.dtd">
<svg version="1.1" id="Layer_1" xmlns="http://www.w3.org/2000/svg" xmlns:xlink="http://www.w3.org/1999/xlink" x="0px" y="0px"
	 width="17px" height="22.746px" viewBox="0 0 17 22.746" enable-background="new 0 0 17 22.746" xml:space="preserve">
<g>
	<g>
		<defs>
			<rect id="SVGID_1_" width="17" height="17"/>
		</defs>
		<clipPath id="SVGID_2_">
			<use xlink:href="#SVGID_1_"  overflow="visible"/>
		</clipPath>
		<path clip-path="url(#SVGID_2_)" fill="#1D1D1B" d="M3.939,16.236C4.927,16.736,6.025,17,7.164,17
			c1.914,0,3.712-0.745,5.064-2.098c1.354-1.354,2.1-3.152,2.1-5.066c0-1.669-0.566-3.251-1.61-4.527l2.83-2.831l0.004,2.114
			L17,4.59l-0.008-4.583L12.41,0l-0.002,1.45l2.113,0.004l-2.83,2.83C10.416,3.24,8.833,2.673,7.164,2.673
			c-1.139,0-2.237,0.264-3.225,0.763c0,0-0.812,0.456-1.445,0.968c-0.136,0.117-0.268,0.24-0.396,0.368
			c-2.793,2.793-2.793,7.337,0,10.13c0.128,0.128,0.26,0.25,0.396,0.367 M3.941,14.557c-0.29-0.199-0.564-0.426-0.818-0.68
			c-2.228-2.229-2.228-5.853,0-8.081c0.254-0.254,0.524-0.479,0.814-0.678l0.004-0.002l0.007-0.004c0,0,1.002-0.612,1.439-0.709
			c0.566-0.185,1.164-0.28,1.776-0.28c1.526,0,2.961,0.595,4.04,1.674c1.08,1.079,1.674,2.514,1.674,4.04
			c0,1.527-0.594,2.961-1.674,4.041c-1.078,1.079-2.513,1.674-4.04,1.674c-0.612,0-1.21-0.096-1.776-0.28
			C4.945,15.148,3.941,14.557,3.941,14.557"/>
	</g>
</g>
<g>
	<g>
		<defs>
			<rect id="SVGID_3_" y="2.673" width="14.35" height="20.073"/>
		</defs>
		<clipPath id="SVGID_4_">
			<use xlink:href="#SVGID_3_"  overflow="visible"/>
		</clipPath>
		<path clip-path="url(#SVGID_4_)" fill="#1D1D1B" d="M11.846,15.289c1.533-1.316,2.504-3.268,2.504-5.441
			c0-2.173-0.971-4.125-2.504-5.441c-0.531-0.499-1.451-0.968-1.451-0.968c-0.971-0.49-2.062-0.765-3.22-0.765
			C3.218,2.673,0,5.892,0,9.848c0,3.711,2.832,6.773,6.448,7.139v2.305H4.437v1.449h2.012v2.006h1.453v-2.004h2.011v-1.451H7.901
			v-2.303c0.889-0.09,1.729-0.344,2.493-0.729 M8.947,15.289c-0.56,0.182-1.154,0.283-1.772,0.283c-3.23,0-5.845-2.695-5.718-5.953
			c0.118-3.033,2.625-5.464,5.662-5.494c0.64-0.007,1.253,0.094,1.829,0.281c0,0,1.042,0.289,1.449,0.715
			c1.51,1.032,2.503,2.766,2.503,4.727s-0.993,3.695-2.503,4.727"/>
	</g>
</g>
</svg>
