<?xml version="1.0" encoding="utf-8"?>
<!-- Generator: Adobe Illustrator 16.0.0, SVG Export Plug-In . SVG Version: 6.00 Build 0)  -->
<!DOCTYPE svg PUBLIC "-//W3C//DTD SVG 1.1//EN" "http://www.w3.org/Graphics/SVG/1.1/DTD/svg11.dtd">
<svg version="1.1" id="Layer_1" xmlns="http://www.w3.org/2000/svg" xmlns:xlink="http://www.w3.org/1999/xlink" x="0px" y="0px"
	 width="17px" height="17px" viewBox="0 0 17 17" enable-background="new 0 0 17 17" xml:space="preserve">
<g>
	<defs>
		<rect id="SVGID_1_" width="17" height="17"/>
	</defs>
	<clipPath id="SVGID_2_">
		<use xlink:href="#SVGID_1_"  overflow="visible"/>
	</clipPath>
	<path clip-path="url(#SVGID_2_)" fill="#1D1D1B" d="M3.939,16.237C4.927,16.736,6.025,17,7.164,17c1.914,0,3.712-0.745,5.065-2.098
		c1.354-1.354,2.099-3.152,2.099-5.066c0-1.669-0.567-3.251-1.61-4.527l2.83-2.831l0.004,2.114L17,4.59l-0.008-4.583L12.41,0
		l-0.002,1.45l2.113,0.004l-2.83,2.83C10.416,3.24,8.833,2.673,7.164,2.673c-1.139,0-2.237,0.264-3.225,0.763
		c0,0-0.812,0.456-1.445,0.968c-0.136,0.117-0.268,0.24-0.396,0.368c-2.793,2.793-2.793,7.338,0,10.131
		c0.128,0.127,0.26,0.25,0.396,0.367 M3.941,14.557c-0.29-0.199-0.564-0.426-0.818-0.68c-2.228-2.229-2.228-5.853,0-8.081
		c0.254-0.254,0.524-0.479,0.814-0.678l0.004-0.002l0.007-0.004c0,0,1.002-0.612,1.439-0.709c0.566-0.185,1.164-0.28,1.776-0.28
		c1.526,0,2.961,0.595,4.04,1.674c1.08,1.079,1.674,2.514,1.674,4.04c0,1.527-0.594,2.961-1.674,4.041
		c-1.078,1.079-2.513,1.674-4.04,1.674c-0.612,0-1.21-0.096-1.776-0.281C4.945,15.148,3.941,14.557,3.941,14.557"/>
</g>
</svg>
