<svg xmlns="http://www.w3.org/2000/svg" width="56.944" height="57.078" viewBox="0 0 56.944 57.078"><g fill="none" stroke="#E10916" stroke-width=".974" stroke-linecap="round" stroke-linejoin="round" stroke-miterlimit="10"><path d="M46.706 51.638c0 1.343-1.09 2.434-2.434 2.434h-31.64c-1.345 0-2.432-1.09-2.432-2.434V9.048C10.2 4.342 14.01.53 18.718.53h19.47c4.703 0 8.518 3.812 8.518 8.518v42.59z"/><path d="M12.633 54.07H17.5v2.435h-4.867zM39.404 54.07h4.868v2.435h-4.868zM10.2 15.133h36.505v21.902H10.2zM22.37 5.397h12.167v4.868H22.37zM15.068 46.77h7.3M34.537 46.77h7.3M.465 17.566h4.867V34.6H.465zM51.573 17.566h4.867V34.6h-4.867zM5.333 17.566H10.2M46.706 17.566h4.867"/></g></svg>