<?xml version="1.0" encoding="utf-8"?>
<!-- Generator: Adobe Illustrator 16.0.0, SVG Export Plug-In . SVG Version: 6.00 Build 0)  -->
<!DOCTYPE svg PUBLIC "-//W3C//DTD SVG 1.1//EN" "http://www.w3.org/Graphics/SVG/1.1/DTD/svg11.dtd">
<svg version="1.1" id="Layer_1" xmlns="http://www.w3.org/2000/svg" xmlns:xlink="http://www.w3.org/1999/xlink" x="0px" y="0px"
	 width="42px" height="50px" viewBox="0 0 42 50" enable-background="new 0 0 42 50" xml:space="preserve">
<rect x="31.061" y="16.568" fill="#E4221E" width="0.851" height="33.432"/>
<rect x="31.677" y="17.724" transform="matrix(-0.9733 -0.2294 0.2294 -0.9733 68.3877 44.2501)" fill="#E4221E" width="10.178" height="0.851"/>
<polygon fill="#E4221E" points="31.65,49.182 31.911,49.991 41.817,46.883 41.556,46.073 "/>
<rect x="0.68" y="16.568" fill="#E4221E" width="0.85" height="33.432"/>
<rect x="1.494" y="49.149" fill="#E4221E" width="29.651" height="0.851"/>
<rect x="1.53" y="16.568" fill="#E4221E" width="29.786" height="0.851"/>
<rect x="40.967" y="18.903" fill="#E4221E" width="0.851" height="27.672"/>
<g>
	<defs>
		<rect id="SVGID_1_" x="0.657" width="41.178" height="50"/>
	</defs>
	<clipPath id="SVGID_2_">
		<use xlink:href="#SVGID_1_"  overflow="visible"/>
	</clipPath>
	<polyline clip-path="url(#SVGID_2_)" fill="none" stroke="#E4221E" stroke-width="0.877" stroke-miterlimit="10" points="
		0.975,16.844 16.377,0.64 31.675,17.098 	"/>
	<polyline clip-path="url(#SVGID_2_)" fill="none" stroke="#E4221E" stroke-width="0.877" stroke-miterlimit="10" points="
		11.527,18.679 27.845,3.546 16.412,0.525 	"/>
	
		<polyline clip-path="url(#SVGID_2_)" fill="none" stroke="#E4221E" stroke-width="0.877" stroke-linecap="square" stroke-linejoin="bevel" stroke-miterlimit="10" points="
		28.68,3.927 41.392,19.252 11.034,18.679 1.53,17.419 	"/>
	
		<polyline clip-path="url(#SVGID_2_)" fill="none" stroke="#E4221E" stroke-width="0.877" stroke-linecap="square" stroke-linejoin="bevel" stroke-miterlimit="10" points="
		11.527,18.679 12.006,46.575 1.293,49.416 	"/>
	
		<line clip-path="url(#SVGID_2_)" fill="none" stroke="#E4221E" stroke-width="0.877" stroke-linecap="square" stroke-linejoin="bevel" stroke-miterlimit="10" x1="12.006" y1="46.574" x2="41.396" y2="46.574"/>
</g>
<polyline fill="none" stroke="#E4221E" stroke-width="0.877" stroke-linecap="square" stroke-miterlimit="10" points="9.605,7.459 
	9.605,1.713 6.49,1.713 6.49,10.643 "/>
</svg>
