<?xml version="1.0" encoding="utf-8"?>
<!-- Generator: Adobe Illustrator 16.0.0, SVG Export Plug-In . SVG Version: 6.00 Build 0)  -->
<!DOCTYPE svg PUBLIC "-//W3C//DTD SVG 1.1//EN" "http://www.w3.org/Graphics/SVG/1.1/DTD/svg11.dtd">
<svg version="1.1" id="Layer_1" xmlns="http://www.w3.org/2000/svg" xmlns:xlink="http://www.w3.org/1999/xlink" x="0px" y="0px"
	 width="56.944px" height="57.078px" viewBox="0 0 56.944 57.078" enable-background="new 0 0 56.944 57.078" xml:space="preserve">
<g>
	
		<path fill="none" stroke="#E10916" stroke-width="0.9735" stroke-linecap="round" stroke-linejoin="round" stroke-miterlimit="10" d="
		M46.706,51.638c0,1.343-1.091,2.434-2.434,2.434H12.633c-1.346,0-2.433-1.091-2.433-2.434V9.048c0-4.706,3.811-8.518,8.518-8.518
		h19.469c4.704,0,8.519,3.812,8.519,8.518V51.638z"/>
	
		<rect x="12.633" y="54.071" fill="none" stroke="#E10916" stroke-width="0.9735" stroke-linecap="round" stroke-linejoin="round" stroke-miterlimit="10" width="4.868" height="2.434"/>
	
		<rect x="39.404" y="54.071" fill="none" stroke="#E10916" stroke-width="0.9735" stroke-linecap="round" stroke-linejoin="round" stroke-miterlimit="10" width="4.868" height="2.434"/>
	
		<rect x="10.2" y="15.133" fill="none" stroke="#E10916" stroke-width="0.9735" stroke-linecap="round" stroke-linejoin="round" stroke-miterlimit="10" width="36.505" height="21.902"/>
	
		<rect x="22.369" y="5.397" fill="none" stroke="#E10916" stroke-width="0.9735" stroke-linecap="round" stroke-linejoin="round" stroke-miterlimit="10" width="12.168" height="4.868"/>
	
		<line fill="none" stroke="#E10916" stroke-width="0.9735" stroke-linecap="round" stroke-linejoin="round" stroke-miterlimit="10" x1="15.068" y1="46.771" x2="22.369" y2="46.771"/>
	
		<line fill="none" stroke="#E10916" stroke-width="0.9735" stroke-linecap="round" stroke-linejoin="round" stroke-miterlimit="10" x1="34.537" y1="46.771" x2="41.837" y2="46.771"/>
	
		<rect x="0.465" y="17.566" fill="none" stroke="#E10916" stroke-width="0.9735" stroke-linecap="round" stroke-linejoin="round" stroke-miterlimit="10" width="4.867" height="17.035"/>
	
		<rect x="51.573" y="17.566" fill="none" stroke="#E10916" stroke-width="0.9735" stroke-linecap="round" stroke-linejoin="round" stroke-miterlimit="10" width="4.867" height="17.035"/>
	
		<line fill="none" stroke="#E10916" stroke-width="0.9735" stroke-linecap="round" stroke-linejoin="round" stroke-miterlimit="10" x1="5.333" y1="17.566" x2="10.2" y2="17.566"/>
	
		<line fill="none" stroke="#E10916" stroke-width="0.9735" stroke-linecap="round" stroke-linejoin="round" stroke-miterlimit="10" x1="46.706" y1="17.566" x2="51.573" y2="17.566"/>
</g>
</svg>
