<?xml version="1.0" encoding="utf-8"?>
<!-- Generator: Adobe Illustrator 16.0.0, SVG Export Plug-In . SVG Version: 6.00 Build 0)  -->
<!DOCTYPE svg PUBLIC "-//W3C//DTD SVG 1.1//EN" "http://www.w3.org/Graphics/SVG/1.1/DTD/svg11.dtd">
<svg version="1.1" id="Layer_1" xmlns="http://www.w3.org/2000/svg" xmlns:xlink="http://www.w3.org/1999/xlink" x="0px" y="0px"
	 width="160px" height="190px" viewBox="0 0 160 190" enable-background="new 0 0 160 190" xml:space="preserve">
<g>
	<defs>
		<rect id="SVGID_1_" width="160" height="185.12"/>
	</defs>
	<clipPath id="SVGID_2_">
		<use xlink:href="#SVGID_1_"  overflow="visible"/>
	</clipPath>
	<path clip-path="url(#SVGID_2_)" fill="#FFFFFF" d="M133.16,127.44l-6.769,6.77l0.847,0.846l-6.77,6.769
		c-4.792-3.335-10.425-0.932-11,4.231c-10.429-2.238-13.606,9.24-6.77,16.077c6.872,6.874,18.303,3.605,16.077-6.769
		c5.142-0.573,7.585-6.179,4.231-11l6.769-6.77l0.846,0.846l6.77-6.769L133.16,127.44z"/>
	
		<path clip-path="url(#SVGID_2_)" fill="none" stroke="#E5231E" stroke-width="1.6922" stroke-linecap="round" stroke-linejoin="round" stroke-miterlimit="10" d="
		M133.16,127.44l-6.769,6.77l0.847,0.846l-6.77,6.769c-4.792-3.335-10.425-0.932-11,4.231c-10.429-2.238-13.606,9.24-6.77,16.077
		c6.872,6.874,18.303,3.605,16.077-6.769c5.142-0.573,7.585-6.179,4.231-11l6.769-6.77l0.846,0.846l6.77-6.769L133.16,127.44z"/>
	
		<circle clip-path="url(#SVGID_2_)" fill="none" stroke="#E5231E" stroke-width="1.6922" stroke-linecap="round" stroke-linejoin="round" stroke-miterlimit="10" cx="115.862" cy="148.97" r="3.385"/>
	
		<line clip-path="url(#SVGID_2_)" fill="none" stroke="#E5231E" stroke-width="1.6922" stroke-linecap="round" stroke-linejoin="round" stroke-miterlimit="10" x1="103.895" y1="156.15" x2="108.681" y2="160.937"/>
	
		<line clip-path="url(#SVGID_2_)" fill="none" stroke="#E5231E" stroke-width="1.6922" stroke-linecap="round" stroke-linejoin="round" stroke-miterlimit="10" x1="129.775" y1="127.44" x2="131.467" y2="129.133"/>
	
		<line clip-path="url(#SVGID_2_)" fill="none" stroke="#E5231E" stroke-width="1.6922" stroke-linecap="round" stroke-linejoin="round" stroke-miterlimit="10" x1="127.237" y1="129.979" x2="128.929" y2="131.671"/>
	
		<line clip-path="url(#SVGID_2_)" fill="none" stroke="#E5231E" stroke-width="1.6922" stroke-linecap="round" stroke-linejoin="round" stroke-miterlimit="10" x1="137.391" y1="135.056" x2="135.699" y2="133.364"/>
	
		<line clip-path="url(#SVGID_2_)" fill="none" stroke="#E5231E" stroke-width="1.6922" stroke-linecap="round" stroke-linejoin="round" stroke-miterlimit="10" x1="134.852" y1="137.594" x2="133.16" y2="135.902"/>
	<rect x="128.464" y="87.268" clip-path="url(#SVGID_2_)" fill="#E5231E" width="2.489" height="97.852"/>
	
		<rect x="143.92" y="77.001" transform="matrix(-0.2301 0.9732 -0.9732 -0.2301 267.9972 -28.2292)" clip-path="url(#SVGID_2_)" fill="#E5231E" width="2.489" height="29.789"/>
	<polygon clip-path="url(#SVGID_2_)" fill="#E5231E" points="130.956,185.094 130.191,182.726 159.183,173.626 159.948,175.995 	"/>
	<rect x="39.542" y="87.268" clip-path="url(#SVGID_2_)" fill="#E5231E" width="2.49" height="97.852"/>
	<rect x="41.924" y="182.631" clip-path="url(#SVGID_2_)" fill="#E5231E" width="86.787" height="2.489"/>
	<rect x="157.459" y="94.102" clip-path="url(#SVGID_2_)" fill="#E5231E" width="2.489" height="80.993"/>
	<polygon clip-path="url(#SVGID_2_)" fill="none" stroke="#E5231E" stroke-width="2.567" stroke-miterlimit="10" points="
		130.263,88.818 85.487,40.646 40.406,88.074 	"/>
	<polyline clip-path="url(#SVGID_2_)" fill="none" stroke="#E5231E" stroke-width="2.567" stroke-miterlimit="10" points="
		71.293,93.446 119.052,49.154 85.589,40.311 	"/>
	
		<polyline clip-path="url(#SVGID_2_)" fill="none" stroke="#E5231E" stroke-width="2.567" stroke-linecap="square" stroke-linejoin="bevel" stroke-miterlimit="10" points="
		121.498,50.268 158.704,95.124 69.849,93.446 42.031,89.756 	"/>
	
		<polyline clip-path="url(#SVGID_2_)" fill="none" stroke="#E5231E" stroke-width="2.567" stroke-linecap="square" stroke-linejoin="bevel" stroke-miterlimit="10" points="
		71.293,93.446 72.694,175.094 41.339,183.408 	"/>
	
		<line clip-path="url(#SVGID_2_)" fill="none" stroke="#E5231E" stroke-width="2.567" stroke-linecap="square" stroke-linejoin="bevel" stroke-miterlimit="10" x1="72.694" y1="175.094" x2="158.716" y2="175.094"/>
	
		<polyline clip-path="url(#SVGID_2_)" fill="none" stroke="#E5231E" stroke-width="2.567" stroke-linecap="square" stroke-miterlimit="10" points="
		65.668,60.607 65.668,43.787 56.55,43.787 56.55,69.924 	"/>
	
		<path clip-path="url(#SVGID_2_)" fill="none" stroke="#E5231E" stroke-width="1.6922" stroke-linecap="round" stroke-linejoin="round" stroke-miterlimit="10" d="
		M41.408,38.742c0,1.945-1.741,3.89-3.89,3.89c-2.147,0-3.89-1.741-3.89-3.89c0-2.148,1.743-3.89,3.89-3.89h3.89V38.742z"/>
	
		<path clip-path="url(#SVGID_2_)" fill="none" stroke="#E5231E" stroke-width="1.6922" stroke-linecap="round" stroke-linejoin="round" stroke-miterlimit="10" d="
		M55.672,33.555c0,1.945-1.741,3.89-3.89,3.89c-2.147,0-3.89-1.741-3.89-3.89c0-2.148,1.743-3.89,3.89-3.89h3.89V33.555z"/>
	
		<polyline clip-path="url(#SVGID_2_)" fill="none" stroke="#E5231E" stroke-width="1.6922" stroke-linecap="round" stroke-linejoin="round" stroke-miterlimit="10" points="
		41.408,36.149 41.408,19.291 55.672,13.456 55.672,32.258 	"/>
	
		<line clip-path="url(#SVGID_2_)" fill="none" stroke="#E5231E" stroke-width="1.6922" stroke-linecap="round" stroke-linejoin="round" stroke-miterlimit="10" x1="41.408" y1="23.83" x2="55.672" y2="17.995"/>
	<line clip-path="url(#SVGID_2_)" fill="#FFFFFF" x1="64.005" y1="124.386" x2="66.823" y2="125.215"/>
	
		<line clip-path="url(#SVGID_2_)" fill="none" stroke="#E5231E" stroke-width="1.4688" stroke-linecap="round" stroke-linejoin="round" stroke-miterlimit="10" x1="64.005" y1="124.386" x2="66.823" y2="125.215"/>
	<line clip-path="url(#SVGID_2_)" fill="#FFFFFF" x1="63.175" y1="127.203" x2="65.993" y2="128.033"/>
	
		<line clip-path="url(#SVGID_2_)" fill="none" stroke="#E5231E" stroke-width="1.4688" stroke-linecap="round" stroke-linejoin="round" stroke-miterlimit="10" x1="63.175" y1="127.203" x2="65.993" y2="128.033"/>
	<line clip-path="url(#SVGID_2_)" fill="#FFFFFF" x1="62.345" y1="130.021" x2="65.163" y2="130.851"/>
	
		<line clip-path="url(#SVGID_2_)" fill="none" stroke="#E5231E" stroke-width="1.4688" stroke-linecap="round" stroke-linejoin="round" stroke-miterlimit="10" x1="62.345" y1="130.021" x2="65.163" y2="130.851"/>
	<path clip-path="url(#SVGID_2_)" fill="#FFFFFF" d="M57.461,110.209c2.335,0.688,3.669,3.137,2.982,5.472l-5.808,19.726
		c-1.375,4.669,2.442,9.906,7.373,11.358c4.932,1.452,10.978-0.881,12.353-5.549l1.452-4.932c0.344-1.167,1.568-1.835,2.736-1.491
		l-7.456-13.679l-3.941,13.385c-0.343,1.167-1.567,1.835-2.736,1.491c-1.168-0.344-1.835-1.568-1.491-2.736l3.319-11.271
		C67.619,117.313,62.13,111.584,57.461,110.209l-2.818-0.829"/>
	
		<path clip-path="url(#SVGID_2_)" fill="none" stroke="#E5231E" stroke-width="1.4688" stroke-linecap="round" stroke-linejoin="round" stroke-miterlimit="10" d="
		M57.461,110.209c2.335,0.688,3.669,3.137,2.982,5.472l-5.808,19.726c-1.375,4.669,2.442,9.906,7.373,11.358
		c4.932,1.452,10.978-0.881,12.353-5.549l1.452-4.932c0.344-1.167,1.568-1.835,2.736-1.491l-7.456-13.679l-3.941,13.385
		c-0.343,1.167-1.567,1.835-2.736,1.491c-1.168-0.344-1.835-1.568-1.491-2.736l3.319-11.271
		C67.619,117.313,62.13,111.584,57.461,110.209l-2.818-0.829"/>
	
		<path clip-path="url(#SVGID_2_)" fill="none" stroke="#E5231E" stroke-width="1.6922" stroke-linecap="round" stroke-linejoin="round" stroke-miterlimit="10" d="
		M30.15,12.72l0.107-1.586c0.054-1.287,0.846-6.232-4.686-7.884c-1.71-0.51-2.146-1.93-2.146-1.93"/>
	
		<path clip-path="url(#SVGID_2_)" fill="none" stroke="#E5231E" stroke-width="1.6922" stroke-linecap="round" stroke-linejoin="round" stroke-miterlimit="10" d="
		M28.22,16.938c0.436,1.42-0.398,3.229-1.968,3.712c-1.568,0.481-3.229-0.399-3.711-1.968c-0.481-1.568,0.4-3.23,1.968-3.712
		c0.518-0.159,2.367-0.726,2.84-0.872C27.639,15.044,27.898,15.888,28.22,16.938z"/>
	
		<line clip-path="url(#SVGID_2_)" fill="none" stroke="#E5231E" stroke-width="1.6922" stroke-linecap="round" stroke-linejoin="round" stroke-miterlimit="10" x1="27.639" y1="15.044" x2="23.279" y2="0.846"/>
	
		<path clip-path="url(#SVGID_2_)" fill="none" stroke="#E5231E" stroke-width="1.6922" stroke-linecap="round" stroke-linejoin="round" stroke-miterlimit="10" d="
		M10.632,31.115l0.988-1.246c0.774-1.03,4.23-4.653,0.61-9.15c-1.12-1.391-0.673-2.807-0.673-2.807"/>
	
		<path clip-path="url(#SVGID_2_)" fill="none" stroke="#E5231E" stroke-width="1.6922" stroke-linecap="round" stroke-linejoin="round" stroke-miterlimit="10" d="
		M6.651,33.495c-0.446,1.417-2.16,2.435-3.726,1.941c-1.564-0.493-2.434-2.16-1.941-3.725c0.493-1.564,2.162-2.434,3.726-1.941
		c0.516,0.163,2.361,0.743,2.833,0.892C7.246,31.606,6.981,32.447,6.651,33.495z"/>
	
		<line clip-path="url(#SVGID_2_)" fill="none" stroke="#E5231E" stroke-width="1.6922" stroke-linecap="round" stroke-linejoin="round" stroke-miterlimit="10" x1="7.246" y1="31.606" x2="11.706" y2="17.439"/>
	
		<path clip-path="url(#SVGID_2_)" fill="none" stroke="#E5231E" stroke-width="1.6922" stroke-linecap="round" stroke-linejoin="round" stroke-miterlimit="10" d="
		M88.35,107.488c-0.195-2.09,5.303-4.311,11.571-4.895c6.268-0.585,12.013,0.587,12.208,2.677c0.195,2.09-5.235,4.304-11.502,4.889
		C94.358,110.744,88.544,109.579,88.35,107.488"/>
	
		<path clip-path="url(#SVGID_2_)" fill="none" stroke="#E5231E" stroke-width="1.6922" stroke-linecap="round" stroke-linejoin="round" stroke-miterlimit="10" d="
		M88.652,110.731c0.585,6.268,6.715,10.822,12.982,10.237c6.268-0.584,11.382-6.187,10.798-12.455l-0.303-3.243"/>
	
		<line clip-path="url(#SVGID_2_)" fill="none" stroke="#E5231E" stroke-width="1.6922" stroke-linecap="round" stroke-linejoin="round" stroke-miterlimit="10" x1="102.206" y1="127.456" x2="101.601" y2="120.971"/>
	
		<line clip-path="url(#SVGID_2_)" fill="none" stroke="#E5231E" stroke-width="1.6922" stroke-linecap="round" stroke-linejoin="round" stroke-miterlimit="10" x1="110.813" y1="126.689" x2="107.607" y2="118.775"/>
	
		<line clip-path="url(#SVGID_2_)" fill="none" stroke="#E5231E" stroke-width="1.6922" stroke-linecap="round" stroke-linejoin="round" stroke-miterlimit="10" x1="93.694" y1="128.287" x2="95.381" y2="119.915"/>
	
		<path clip-path="url(#SVGID_2_)" fill="none" stroke="#E5231E" stroke-width="1.6922" stroke-linecap="round" stroke-linejoin="round" stroke-miterlimit="10" d="
		M99.511,110.263l2.162-0.202l0.403,4.324c0.055,0.597-0.383,1.125-0.98,1.182c-0.597,0.056-1.126-0.383-1.181-0.98L99.511,110.263z
		"/>
	
		<line clip-path="url(#SVGID_2_)" fill="none" stroke="#E5231E" stroke-width="1.6922" stroke-linecap="round" stroke-linejoin="round" stroke-miterlimit="10" x1="112.229" y1="106.351" x2="112.431" y2="108.513"/>
	
		<path clip-path="url(#SVGID_2_)" fill="none" stroke="#E5231E" stroke-width="1.6922" stroke-linecap="round" stroke-linejoin="round" stroke-miterlimit="10" d="
		M112.2,111.066c-0.164,0.137-0.369,0.229-0.597,0.25c-0.598,0.056-1.126-0.382-1.182-0.98l-0.252-2.703"/>
	
		<path clip-path="url(#SVGID_2_)" fill="none" stroke="#E5231E" stroke-width="1.6922" stroke-linecap="round" stroke-linejoin="round" stroke-miterlimit="10" d="
		M89.963,113.334c0.596-0.055,1.058-0.586,1.002-1.183l-0.252-2.703"/>
</g>
</svg>
